<svg xmlns="http://www.w3.org/2000/svg" viewBox="0 0 60 59.6"><path d="M0 43.7l27.4 15.9V36.3L0 20.3v23.4zm51.3-31.3v2.5c0 1.8-3.5 3.3-7.7 3.3-4.3 0-7.7-1.5-7.7-3.3v-4.1c.3 1.7 3.6 3.1 7.7 3.1 4.3 0 7.7-1.5 7.7-3.3 0-1.8-3.5-3.3-7.7-3.3h-1l-5-2.9v3.1c0 1.8-3.5 3.3-7.7 3.3-2.7 0-5-.6-6.4-1.5-.2-.1-.5-.3-.8-.5-.4-.4-.6-.8-.6-1.2v-3l-4.8 2.8h-1.1c-4.3 0-7.7 1.5-7.7 3.3 0 1.8 3.5 3.3 7.7 3.3 4.1 0 7.4-1.4 7.7-3.1V15c0 1.8-3.5 3.3-7.7 3.3-4.3 0-7.7-1.5-7.7-3.3v-2.4l-6 3.5 27.5 16L57.5 16l-6.2-3.6zM37.7 22.6c0 1.8-3.5 3.3-7.7 3.3-4.3 0-7.7-1.5-7.7-3.3v-4.1c.3 1.7 3.6 3.1 7.7 3.1s7.4-1.4 7.7-3.1v4.1zm-5.1 13.9v23.1L60 43.7V20.5l-27.4 16zM29.9 6.6c4.3 0 7.7-1.5 7.7-3.3 0-1.8-3.5-3.3-7.7-3.3-4.3 0-7.7 1.5-7.7 3.3 0 1.8 3.4 3.3 7.7 3.3" fill="#149080"/></svg>
