<svg id="svg4488" xmlns="http://www.w3.org/2000/svg" viewBox="0 0 40.2 62.4"><style>.st0{fill:#149080}</style><path class="st0" d="M15.2 38c-.3 1-.2 2.2 0 3.6.5 2.6 1.7 6 2.4 9.7h5.1c.7-3.6 1.9-7.1 2.5-9.7.3-1.4.3-2.7 0-3.6-.3-.9-.9-1.6-2-2.3h-6c-1.2.6-1.8 1.4-2 2.3zM27 58H13.2c-1.3 0-2.3 1-2.3 2.2v2.2H29.3v-2.2c0-1.3-1-2.2-2.3-2.2zM34.1 2.2H22.4c0-1.2-1-2.2-2.3-2.2-1.3 0-2.3 1-2.3 2.2H6.1L0 27.7c.8-.5 1.6-1 2.6-1 1.4 0 2.2.8 2.9 1.4.7.6 1.2.9 1.5.9.3 0 .8-.3 1.5-.8s1.6-1.4 2.9-1.4c1.3 0 2.2.8 2.9 1.4.7.5 1.2.8 1.5.8.1 0 .3-.1.6-.2s.5-.4.9-.6c.5-.4 1.1-1 2-1.2.3-.1.6-.1.9-.1 1.3 0 2.2.8 2.9 1.4.7.5 1.2.8 1.5.8.3 0 .8-.3 1.4-.9.7-.6 1.6-1.4 2.9-1.4 1.4 0 2.2.8 2.9 1.4.3.3.6.5.9.6.2.1.4.2.6.2.3 0 .8-.3 1.4-.9.7-.6 1.6-1.4 2.9-1.4 1 0 1.8.5 2.6 1L34.1 2.2zM23.5 53.5h-6.9c-.7 0-1.1.5-1.1 1.1 0 .6.5 1.1 1.1 1.1h6.9c.7 0 1.1-.5 1.1-1.1.1-.6-.4-1.1-1.1-1.1z"/><path class="st0" d="M20.1 29c-.1 0-.3.1-.6.2-.2.1-.4.3-.6.4v3.7h2.3v-3.7c-.4-.3-.9-.6-1.1-.6z"/></svg>
